<?xml version="1.0" encoding="UTF-8" standalone="no"?>
<!DOCTYPE svg PUBLIC "-//W3C//DTD SVG 1.1//EN"
 "http://www.w3.org/Graphics/SVG/1.1/DTD/svg11.dtd">
<!-- Generated by graphviz version 2.40.1 (20161225.0304)
 -->
<!-- Title: G Pages: 1 -->
<svg width="483pt" height="560pt"
 viewBox="0.00 0.00 482.92 560.00" xmlns="http://www.w3.org/2000/svg" xmlns:xlink="http://www.w3.org/1999/xlink">
<g id="graph0" class="graph" transform="scale(1 1) rotate(0) translate(4 556)">
<title>G</title>
<polygon fill="#ffffff" stroke="transparent" points="-4,4 -4,-556 478.925,-556 478.925,4 -4,4"/>
<g id="clust1" class="cluster">
<title>cluster_Global</title>
<path fill="none" stroke="#c0c0c0" d="M362.1164,-8C362.1164,-8 454.925,-8 454.925,-8 460.925,-8 466.925,-14 466.925,-20 466.925,-20 466.925,-532 466.925,-532 466.925,-538 460.925,-544 454.925,-544 454.925,-544 362.1164,-544 362.1164,-544 356.1164,-544 350.1164,-538 350.1164,-532 350.1164,-532 350.1164,-20 350.1164,-20 350.1164,-14 356.1164,-8 362.1164,-8"/>
<text text-anchor="middle" x="408.5207" y="-531.2" font-family="Times,serif" font-size="11.00" fill="#c0c0c0">Global</text>
</g>
<g id="clust2" class="cluster">
<title>cluster_\joel</title>
<path fill="none" stroke="#c0c0c0" d="M370.1164,-16C370.1164,-16 446.925,-16 446.925,-16 452.925,-16 458.925,-22 458.925,-28 458.925,-28 458.925,-505 458.925,-505 458.925,-511 452.925,-517 446.925,-517 446.925,-517 370.1164,-517 370.1164,-517 364.1164,-517 358.1164,-511 358.1164,-505 358.1164,-505 358.1164,-28 358.1164,-28 358.1164,-22 364.1164,-16 370.1164,-16"/>
<text text-anchor="middle" x="408.5207" y="-504.2" font-family="Times,serif" font-size="11.00" fill="#c0c0c0">joel</text>
</g>
<g id="clust3" class="cluster">
<title>cluster_\joel\App</title>
<path fill="none" stroke="#c0c0c0" d="M385.5207,-419C385.5207,-419 431.5207,-419 431.5207,-419 437.5207,-419 443.5207,-425 443.5207,-431 443.5207,-431 443.5207,-478 443.5207,-478 443.5207,-484 437.5207,-490 431.5207,-490 431.5207,-490 385.5207,-490 385.5207,-490 379.5207,-490 373.5207,-484 373.5207,-478 373.5207,-478 373.5207,-431 373.5207,-431 373.5207,-425 379.5207,-419 385.5207,-419"/>
<text text-anchor="middle" x="408.5207" y="-477.2" font-family="Times,serif" font-size="11.00" fill="#c0c0c0">App</text>
</g>
<g id="clust4" class="cluster">
<title>cluster_\joel\Cookie</title>
<path fill="none" stroke="#c0c0c0" d="M384.7175,-340C384.7175,-340 432.3239,-340 432.3239,-340 438.3239,-340 444.3239,-346 444.3239,-352 444.3239,-352 444.3239,-399 444.3239,-399 444.3239,-405 438.3239,-411 432.3239,-411 432.3239,-411 384.7175,-411 384.7175,-411 378.7175,-411 372.7175,-405 372.7175,-399 372.7175,-399 372.7175,-352 372.7175,-352 372.7175,-346 378.7175,-340 384.7175,-340"/>
<text text-anchor="middle" x="408.5207" y="-398.2" font-family="Times,serif" font-size="11.00" fill="#c0c0c0">Cookie</text>
</g>
<g id="clust5" class="cluster">
<title>cluster_\joel\DiceGame</title>
<path fill="none" stroke="#c0c0c0" d="M378.1164,-261C378.1164,-261 438.925,-261 438.925,-261 444.925,-261 450.925,-267 450.925,-273 450.925,-273 450.925,-320 450.925,-320 450.925,-326 444.925,-332 438.925,-332 438.925,-332 378.1164,-332 378.1164,-332 372.1164,-332 366.1164,-326 366.1164,-320 366.1164,-320 366.1164,-273 366.1164,-273 366.1164,-267 372.1164,-261 378.1164,-261"/>
<text text-anchor="middle" x="408.5207" y="-319.2" font-family="Times,serif" font-size="11.00" fill="#c0c0c0">DiceGame</text>
</g>
<g id="clust6" class="cluster">
<title>cluster_\joel\Navbar</title>
<path fill="none" stroke="#c0c0c0" d="M384.7175,-182C384.7175,-182 432.3239,-182 432.3239,-182 438.3239,-182 444.3239,-188 444.3239,-194 444.3239,-194 444.3239,-241 444.3239,-241 444.3239,-247 438.3239,-253 432.3239,-253 432.3239,-253 384.7175,-253 384.7175,-253 378.7175,-253 372.7175,-247 372.7175,-241 372.7175,-241 372.7175,-194 372.7175,-194 372.7175,-188 378.7175,-182 384.7175,-182"/>
<text text-anchor="middle" x="408.5207" y="-240.2" font-family="Times,serif" font-size="11.00" fill="#c0c0c0">Navbar</text>
</g>
<g id="clust7" class="cluster">
<title>cluster_\joel\Session</title>
<path fill="none" stroke="#c0c0c0" d="M381.4169,-103C381.4169,-103 435.6245,-103 435.6245,-103 441.6245,-103 447.6245,-109 447.6245,-115 447.6245,-115 447.6245,-162 447.6245,-162 447.6245,-168 441.6245,-174 435.6245,-174 435.6245,-174 381.4169,-174 381.4169,-174 375.4169,-174 369.4169,-168 369.4169,-162 369.4169,-162 369.4169,-115 369.4169,-115 369.4169,-109 375.4169,-103 381.4169,-103"/>
<text text-anchor="middle" x="408.5207" y="-161.2" font-family="Times,serif" font-size="11.00" fill="#c0c0c0">Session</text>
</g>
<g id="clust8" class="cluster">
<title>cluster_\joel\sqlCode</title>
<path fill="none" stroke="#c0c0c0" d="M381.4169,-24C381.4169,-24 435.6245,-24 435.6245,-24 441.6245,-24 447.6245,-30 447.6245,-36 447.6245,-36 447.6245,-83 447.6245,-83 447.6245,-89 441.6245,-95 435.6245,-95 435.6245,-95 381.4169,-95 381.4169,-95 375.4169,-95 369.4169,-89 369.4169,-83 369.4169,-83 369.4169,-36 369.4169,-36 369.4169,-30 375.4169,-24 381.4169,-24"/>
<text text-anchor="middle" x="408.5207" y="-82.2" font-family="Times,serif" font-size="11.00" fill="#c0c0c0">sqlCode</text>
</g>
<!-- \\joel\\App\\App -->
<g id="node1" class="node">
<title>\\joel\\App\\App</title>
<polygon fill="none" stroke="#000000" points="435.5207,-463 381.5207,-463 381.5207,-427 435.5207,-427 435.5207,-463"/>
<text text-anchor="middle" x="408.5207" y="-441.7" font-family="Courier,monospace" font-size="11.00" fill="#000000">App</text>
</g>
<!-- \\joel\\Cookie\\Cookie -->
<g id="node2" class="node">
<title>\\joel\\Cookie\\Cookie</title>
<polygon fill="none" stroke="#000000" points="436.1285,-384 380.9129,-384 380.9129,-348 436.1285,-348 436.1285,-384"/>
<text text-anchor="middle" x="408.5207" y="-362.7" font-family="Courier,monospace" font-size="11.00" fill="#000000">Cookie</text>
</g>
<!-- \\joel\\DiceGame\\DiceGame -->
<g id="node3" class="node">
<title>\\joel\\DiceGame\\DiceGame</title>
<polygon fill="none" stroke="#000000" points="442.8296,-305 374.2118,-305 374.2118,-269 442.8296,-269 442.8296,-305"/>
<text text-anchor="middle" x="408.5207" y="-283.7" font-family="Courier,monospace" font-size="11.00" fill="#000000">DiceGame</text>
</g>
<!-- \\joel\\Navbar\\Navbar -->
<g id="node4" class="node">
<title>\\joel\\Navbar\\Navbar</title>
<polygon fill="none" stroke="#000000" points="436.1285,-226 380.9129,-226 380.9129,-190 436.1285,-190 436.1285,-226"/>
<text text-anchor="middle" x="408.5207" y="-204.7" font-family="Courier,monospace" font-size="11.00" fill="#000000">Navbar</text>
</g>
<!-- \\Anax\\Common\\AppInjectableInterface -->
<g id="node7" class="node">
<title>\\Anax\\Common\\AppInjectableInterface</title>
<ellipse fill="none" stroke="#000000" cx="151.0582" cy="-235" rx="151.1164" ry="18"/>
<text text-anchor="middle" x="151.0582" y="-230.8" font-family="Times,serif" font-size="14.00" fill="#c0c0c0">\Anax\Common\AppInjectableInterface</text>
</g>
<!-- \\joel\\Navbar\\Navbar&#45;&gt;\\Anax\\Common\\AppInjectableInterface -->
<g id="edge1" class="edge">
<title>\\joel\\Navbar\\Navbar&#45;&gt;\\Anax\\Common\\AppInjectableInterface</title>
<path fill="none" stroke="#000000" stroke-dasharray="1,5" d="M380.4776,-210.9409C354.5858,-213.6561 314.2464,-217.8865 274.5693,-222.0474"/>
<polygon fill="none" stroke="#000000" points="274.0857,-218.5789 264.5053,-223.1028 274.8159,-225.5407 274.0857,-218.5789"/>
</g>
<!-- \\Anax\\Common\\ConfigureInterface -->
<g id="node8" class="node">
<title>\\Anax\\Common\\ConfigureInterface</title>
<ellipse fill="none" stroke="#000000" cx="151.0582" cy="-181" rx="136.1844" ry="18"/>
<text text-anchor="middle" x="151.0582" y="-176.8" font-family="Times,serif" font-size="14.00" fill="#c0c0c0">\Anax\Common\ConfigureInterface</text>
</g>
<!-- \\joel\\Navbar\\Navbar&#45;&gt;\\Anax\\Common\\ConfigureInterface -->
<g id="edge2" class="edge">
<title>\\joel\\Navbar\\Navbar&#45;&gt;\\Anax\\Common\\ConfigureInterface</title>
<path fill="none" stroke="#000000" stroke-dasharray="1,5" d="M380.4776,-205.0591C353.1489,-202.1932 309.7244,-197.6393 267.972,-193.2607"/>
<polygon fill="none" stroke="#000000" points="268.2822,-189.7741 257.9717,-192.212 267.5521,-196.736 268.2822,-189.7741"/>
</g>
<!-- \\joel\\Session\\Session -->
<g id="node5" class="node">
<title>\\joel\\Session\\Session</title>
<polygon fill="none" stroke="#000000" points="439.7286,-147 377.3128,-147 377.3128,-111 439.7286,-111 439.7286,-147"/>
<text text-anchor="middle" x="408.5207" y="-125.7" font-family="Courier,monospace" font-size="11.00" fill="#000000">Session</text>
</g>
<!-- \\joel\\sqlCode\\sqlCode -->
<g id="node6" class="node">
<title>\\joel\\sqlCode\\sqlCode</title>
<polygon fill="none" stroke="#000000" points="439.7286,-68 377.3128,-68 377.3128,-32 439.7286,-32 439.7286,-68"/>
<text text-anchor="middle" x="408.5207" y="-46.7" font-family="Courier,monospace" font-size="11.00" fill="#000000">sqlCode</text>
</g>
</g>
</svg>
